<svg xmlns="http://www.w3.org/2000/svg" version="1.1" width="392px" height="392px"
    style="shape-rendering:geometricPrecision; text-rendering:geometricPrecision; image-rendering:optimizeQuality; fill-rule:evenodd; clip-rule:evenodd;"
    xmlns:xlink="http://www.w3.org/1999/xlink">
    <g transform="translate(0, 50)">
        <g>
            <path style="opacity:1" fill="rgba(0, 0, 0, 0)"
                d="M -0.5,-0.5 C 130.167,-0.5 260.833,-0.5 391.5,-0.5C 391.5,96.8333 391.5,194.167 391.5,291.5C 260.833,291.5 130.167,291.5 -0.5,291.5C -0.5,194.167 -0.5,96.8333 -0.5,-0.5 Z" />
        </g>
        <g>
            <path style="opacity:1" fill="#0657fe"
                d="M 220.5,0.5 C 235.17,0.333419 249.837,0.500086 264.5,1C 234.274,97.0623 204.274,193.229 174.5,289.5C 159.511,290.666 144.511,290.833 129.5,290C 159.942,193.509 190.275,97.0088 220.5,0.5 Z" />
        </g>
        <g>
            <path style="opacity:1" fill="#c2f3e9"
                d="M 113.5,63.5 C 113.56,62.9569 113.893,62.6236 114.5,62.5C 115.826,76.9945 115.826,91.3278 114.5,105.5C 114.829,91.3234 114.496,77.3234 113.5,63.5 Z" />
        </g>
        <g>
            <path style="opacity:1" fill="#16d2ac"
                d="M 113.5,63.5 C 114.496,77.3234 114.829,91.3234 114.5,105.5C 77.0683,130.058 39.4016,154.392 1.5,178.5C 0.166667,163.167 0.166667,147.833 1.5,132.5C 38.8507,109.473 76.1841,86.4732 113.5,63.5 Z" />
        </g>
        <g>
            <path style="opacity:1" fill="#327af2"
                d="M 389.5,133.5 C 389.829,148.676 389.496,163.676 388.5,178.5C 351.277,154.635 314.11,130.635 277,106.5C 276.167,92.1551 276.334,77.8217 277.5,63.5C 315.139,86.4986 352.473,109.832 389.5,133.5 Z" />
        </g>
        <g>
            <path style="opacity:1" fill="#6fa2f5"
                d="M 389.5,133.5 C 390.826,148.672 390.826,164.005 389.5,179.5C 388.893,179.376 388.56,179.043 388.5,178.5C 389.496,163.676 389.829,148.676 389.5,133.5 Z" />
        </g>
        <g>
            <path style="opacity:1" fill="#17d2ac"
                d="M 75.5,176.5 C 89.6579,184.84 103.491,193.84 117,203.5C 117.667,218.833 117.667,234.167 117,249.5C 92.3631,233.029 67.8631,216.362 43.5,199.5C 54.2337,191.812 64.9004,184.145 75.5,176.5 Z" />
        </g>
        <g>
            <path style="opacity:1" fill="#337bf2"
                d="M 274.5,249.5 C 273.504,234.342 273.17,219.009 273.5,203.5C 286.903,194.713 300.403,186.046 314,177.5C 325.54,184.213 336.373,191.879 346.5,200.5C 322.482,216.859 298.482,233.192 274.5,249.5 Z" />
        </g>
        <g>
            <path style="opacity:1" fill="#c2d7fb"
                d="M 273.5,203.5 C 273.17,219.009 273.504,234.342 274.5,249.5C 274.44,250.043 274.107,250.376 273.5,250.5C 272.173,234.672 272.173,219.005 273.5,203.5 Z" />
        </g>
    </g>
</svg>